<svg xmlns="http://www.w3.org/2000/svg" viewBox="0 0 354.05 152.09"><defs><style>.cls-1{fill:#092141;}.cls-2{fill:#0096ae;}</style></defs><title>VRAINRecurso 1</title><g id="Capa_2" data-name="Capa 2"><g id="Capa_1-2" data-name="Capa 1"><path class="cls-1" d="M54.11,113.35,49.58,91.27h2.07l2,10.53c.6,3.16,1.5,7.38,1.73,9.49h0c.2-2.08,1.13-6.31,1.72-9.4l2.09-10.62h2L56.6,113.35Z"/><path class="cls-1" d="M71.66,110.84c0,1.2,0,2.12.08,2.51H69.92a7.7,7.7,0,0,1-.17-1.45,3.14,3.14,0,0,1-3.19,1.71c-2.76,0-3.84-2-3.84-4.61v-.29c0-3.53,2.4-5,5.86-5h1.14v-3c0-1.65-.38-2.76-2.17-2.76s-2.31,1.14-2.31,2.63v.57h-1.9v-.56c0-2.26,1.07-4.12,4.27-4.12s4,1.85,4,4.14Zm-1.89-5.77H68.59c-2.53,0-4,1-4,3.58v.29c0,1.7.57,3.16,2.33,3.16,2.16,0,2.81-1.55,2.81-4.21Z"/><path class="cls-1" d="M76.53,113.35V90.29h1.91v23.06Z"/><path class="cls-1" d="M84.59,105.22v2.92c0,1.92.41,4,2.67,4,2.08,0,2.53-1.36,2.53-3.23v-.18h1.89v.15c0,2.06-.59,4.7-4.47,4.7-3.45,0-4.52-2-4.52-5.42v-6.72c0-2.7,1.18-5,4.61-5s4.43,2.37,4.43,5v3.73Zm5.26-1.4v-2.35c0-1.55-.21-3.57-2.58-3.57s-2.68,1.68-2.68,3.6v2.32Z"/><path class="cls-1" d="M95.79,101.73c0-3.3,0-4.14,0-5h1.82a15.33,15.33,0,0,1,.09,1.77c.58-1.4,1.83-2,3.58-2,2,0,3.75.91,3.75,3.9v13h-1.91V100.69c0-1.69-.66-2.71-2.32-2.71-1.83,0-3.06.74-3.06,4.52v10.85H95.79Z"/><path class="cls-1" d="M118.07,108.29v.23c0,2.78-.83,5.09-4.46,5.09-3.34,0-4.36-2-4.36-5.34v-7c0-2.88,1.32-4.83,4.52-4.83,3.45,0,4.3,2.18,4.3,4.51v.71h-1.93v-.48c0-1.67-.33-3.29-2.42-3.29-1.78,0-2.52,1.11-2.52,3.48v7.08c0,1.76.4,3.71,2.46,3.71,1.76,0,2.48-.92,2.48-3.55v-.33Z"/><path class="cls-1" d="M122,96.72h1.91v16.63H122Zm0-6.43h1.91v3.25H122Z"/><path class="cls-1" d="M136.68,110.84c0,1.2,0,2.12.07,2.51h-1.81a8.77,8.77,0,0,1-.18-1.45,3.14,3.14,0,0,1-3.19,1.71c-2.75,0-3.83-2-3.83-4.61v-.29c0-3.53,2.39-5,5.86-5h1.14v-3c0-1.65-.39-2.76-2.17-2.76s-2.31,1.14-2.31,2.63v.57h-1.9v-.56c0-2.26,1.06-4.12,4.26-4.12s4.06,1.85,4.06,4.14Zm-1.9-5.77h-1.17c-2.54,0-4,1-4,3.58v.29c0,1.7.57,3.16,2.33,3.16,2.16,0,2.81-1.55,2.81-4.21Z"/><path class="cls-1" d="M141.54,101.73c0-3.3,0-4.14,0-5h1.82a15.33,15.33,0,0,1,.09,1.77c.58-1.4,1.83-2,3.58-2,2,0,3.75.91,3.75,3.9v13h-1.91V100.69c0-1.69-.66-2.71-2.33-2.71-1.82,0-3.05.74-3.05,4.52v10.85h-1.91Z"/><path class="cls-1" d="M164,102.74v10.61h-1.91V91.27h3.85c3.88,0,5.52,1.49,5.52,4.92v1.12c0,2.73-1,4.21-2.65,4.68,1.74.46,2.44,1.6,2.44,4.53a47.44,47.44,0,0,0,.27,6.83h-1.89a46.13,46.13,0,0,1-.27-6.68c0-3-.52-3.93-3.27-3.93Zm0-1.43h2.24c2.72,0,3.28-1.58,3.28-3.91V96.26c0-2.23-.82-3.56-3.65-3.56H164Z"/><path class="cls-1" d="M177.33,105.22v2.92c0,1.92.42,4,2.68,4,2.07,0,2.52-1.36,2.52-3.23v-.18h1.9v.15c0,2.06-.6,4.7-4.47,4.7-3.46,0-4.52-2-4.52-5.42v-6.72c0-2.7,1.18-5,4.61-5s4.42,2.37,4.42,5v3.73Zm5.26-1.4v-2.35c0-1.55-.21-3.57-2.57-3.57s-2.68,1.68-2.68,3.6v2.32Z"/><path class="cls-1" d="M189.74,108.59v.71c0,2,1,2.87,2.56,2.87,1.8,0,2.49-1,2.49-2.8,0-2-.71-2.77-2.84-4-2.58-1.46-3.75-2.6-3.75-4.86s1.13-4.07,4.19-4.07c3.32,0,4.1,2,4.1,4.09v.83H194.6v-.85c0-1.59-.5-2.62-2.26-2.62-1.56,0-2.2.89-2.2,2.46s.55,2.23,2.63,3.43c2.5,1.43,4,2.57,4,5.33s-1.41,4.49-4.55,4.49c-3.45,0-4.4-2-4.4-4.26v-.76Z"/><path class="cls-1" d="M202.14,105.22v2.92c0,1.92.41,4,2.67,4,2.08,0,2.53-1.36,2.53-3.23v-.18h1.89v.15c0,2.06-.59,4.7-4.47,4.7-3.45,0-4.52-2-4.52-5.42v-6.72c0-2.7,1.18-5,4.61-5s4.43,2.37,4.43,5v3.73Zm5.25-1.4v-2.35c0-1.55-.2-3.57-2.57-3.57s-2.68,1.68-2.68,3.6v2.32Z"/><path class="cls-1" d="M221.31,110.84c0,1.2,0,2.12.08,2.51h-1.82a7.7,7.7,0,0,1-.17-1.45,3.15,3.15,0,0,1-3.2,1.71c-2.75,0-3.83-2-3.83-4.61v-.29c0-3.53,2.39-5,5.86-5h1.14v-3c0-1.65-.39-2.76-2.17-2.76s-2.31,1.14-2.31,2.63v.57H213v-.56c0-2.26,1.07-4.12,4.27-4.12s4.05,1.85,4.05,4.14Zm-1.89-5.77h-1.18c-2.53,0-4,1-4,3.58v.29c0,1.7.58,3.16,2.34,3.16,2.16,0,2.81-1.55,2.81-4.21Z"/><path class="cls-1" d="M226.17,102.39c0-2.62,0-4.35,0-5.67H228c0,.52.08,1.25.08,2.53a4.17,4.17,0,0,1,4-2.74v2c-2.56,0-4,1.71-4,4.43v10.4h-1.92Z"/><path class="cls-1" d="M243.42,108.29v.23c0,2.78-.83,5.09-4.46,5.09-3.34,0-4.36-2-4.36-5.34v-7c0-2.88,1.32-4.83,4.52-4.83,3.45,0,4.3,2.18,4.3,4.51v.71h-1.93v-.48c0-1.67-.33-3.29-2.42-3.29-1.78,0-2.52,1.11-2.52,3.48v7.08c0,1.76.4,3.71,2.46,3.71,1.76,0,2.48-.92,2.48-3.55v-.33Z"/><path class="cls-1" d="M249.07,90.29v8a3.65,3.65,0,0,1,3.55-1.85c2.89,0,3.74,1.85,3.74,4.27v12.63h-1.91V101.1c0-1.5-.19-3.12-2.34-3.12-2.51,0-3,1.73-3,4.52v10.85h-1.91V90.29Z"/><path class="cls-1" d="M269.58,91.27v22.08h-1.92V91.27Z"/><path class="cls-1" d="M274.3,101.73c0-3.3,0-4.14,0-5h1.82a15.33,15.33,0,0,1,.09,1.77c.58-1.4,1.83-2,3.58-2,2,0,3.75.91,3.75,3.9v13h-1.91V100.69c0-1.69-.66-2.71-2.33-2.71s-3.05.74-3.05,4.52v10.85H274.3Z"/><path class="cls-1" d="M289.08,108.59v.71c0,2,1.05,2.87,2.56,2.87,1.79,0,2.48-1,2.48-2.8,0-2-.7-2.77-2.84-4-2.58-1.46-3.74-2.6-3.74-4.86s1.13-4.07,4.19-4.07c3.31,0,4.1,2,4.1,4.09v.83h-1.89v-.85c0-1.59-.5-2.62-2.27-2.62-1.55,0-2.2.89-2.2,2.46s.55,2.23,2.64,3.43c2.49,1.43,4,2.57,4,5.33s-1.4,4.49-4.55,4.49c-3.44,0-4.39-2-4.39-4.26v-.76Z"/><path class="cls-1" d="M298.2,96.72h2.37V92.57h1.88v4.15h3v1.46h-3v12.11c0,.91.21,1.86,1.49,1.86a8.11,8.11,0,0,0,1.34-.1v1.31a7.6,7.6,0,0,1-1.94.2c-1.51,0-2.77-.67-2.77-3V98.18H298.2Z"/><path class="cls-1" d="M308.58,96.72h1.91v16.63h-1.91Zm0-6.43h1.91v3.25h-1.91Z"/><path class="cls-1" d="M313.29,96.72h2.37V92.57h1.88v4.15h3v1.46h-3v12.11c0,.91.21,1.86,1.49,1.86a8.32,8.32,0,0,0,1.35-.1v1.31a7.68,7.68,0,0,1-1.95.2c-1.51,0-2.77-.67-2.77-3V98.18h-2.37Z"/><path class="cls-1" d="M332.31,109.11c0,2,0,3.51,0,4.24h-1.82c0-.28-.09-1.16-.09-1.84-.54,1.54-1.69,2.1-3.43,2.1-1.45,0-3.76-.38-3.76-4.19V96.72h1.91V109c0,2.29.71,3.12,2.36,3.12,1.45,0,2.88-.72,2.88-4.61V96.72h1.91Z"/><path class="cls-1" d="M335.37,96.72h2.37V92.57h1.87v4.15h3v1.46h-3v12.11c0,.91.22,1.86,1.49,1.86a8.15,8.15,0,0,0,1.35-.1v1.31a7.65,7.65,0,0,1-1.94.2c-1.52,0-2.77-.67-2.77-3V98.18h-2.37Z"/><path class="cls-1" d="M346.91,105.22v2.92c0,1.92.42,4,2.67,4,2.08,0,2.53-1.36,2.53-3.23v-.18H354v.15c0,2.06-.59,4.7-4.47,4.7-3.45,0-4.51-2-4.51-5.42v-6.72c0-2.7,1.18-5,4.61-5s4.42,2.37,4.42,5v3.73Zm5.26-1.4v-2.35c0-1.55-.21-3.57-2.58-3.57s-2.67,1.68-2.67,3.6v2.32Z"/><path class="cls-1" d="M96.7,146.18V131H94.52v-1.46H96.7v-2.85c0-1.83.75-3.72,3.55-3.72a5.71,5.71,0,0,1,1.18.1v1.55a5.55,5.55,0,0,0-1-.08c-1.51,0-1.82.94-1.82,2.31v2.69h2.61V131H98.61v15.16Z"/><path class="cls-1" d="M112.89,134v7.36c0,3.64-2,5.09-4.72,5.09s-4.61-1.38-4.61-4.95V134c0-2.92,1.7-4.71,4.73-4.71S112.89,131.1,112.89,134Zm-7.38,0v7.53c0,2.14.88,3.43,2.71,3.43S111,144,111,141.54V134c0-1.89-.81-3.25-2.71-3.25S105.51,132,105.51,134Z"/><path class="cls-1" d="M117.17,135.23c0-2.62,0-4.36,0-5.67H119c0,.52.08,1.25.08,2.53a4.16,4.16,0,0,1,4-2.74v2c-2.55,0-4,1.71-4,4.43v10.39h-1.91Z"/><path class="cls-1" d="M134.45,138.35,133,146.18h-1.92l4.33-22.07h2.76l4.52,22.07h-2l-1.55-7.83Zm4.38-1.49c-1.13-5.62-1.84-9.52-2.05-11.32h-.09c-.09,1.63-1.12,6.76-1.95,11.32Z"/><path class="cls-1" d="M146.38,135.23c0-2.62,0-4.36,0-5.67h1.84c0,.52.08,1.25.08,2.53a4.16,4.16,0,0,1,4-2.74v2c-2.55,0-4,1.71-4,4.43v10.39h-1.91Z"/><path class="cls-1" d="M154.75,129.56h2.37V125.4H159v4.16h3V131h-3v12.11c0,.9.22,1.86,1.49,1.86a8.32,8.32,0,0,0,1.35-.1v1.31a7.69,7.69,0,0,1-2,.19c-1.51,0-2.77-.66-2.77-3V131h-2.37Z"/><path class="cls-1" d="M165.14,129.56h1.91v16.62h-1.91Zm0-6.43h1.92v3.25h-1.92Z"/><path class="cls-1" d="M172.24,146.18V131h-2.18v-1.46h2.18v-2.85c0-1.83.75-3.72,3.56-3.72a5.67,5.67,0,0,1,1.17.1v1.55a5.47,5.47,0,0,0-1-.08c-1.51,0-1.82.94-1.82,2.31v2.69h2.61V131h-2.61v15.16Z"/><path class="cls-1" d="M179.72,129.56h1.91v16.62h-1.91Zm0-6.43h1.91v3.25h-1.91Z"/><path class="cls-1" d="M194.71,141.12v.23c0,2.78-.84,5.1-4.47,5.1-3.33,0-4.35-2-4.35-5.34v-7c0-2.89,1.32-4.83,4.51-4.83,3.46,0,4.31,2.18,4.31,4.51v.71h-1.93V134c0-1.68-.34-3.3-2.42-3.3-1.78,0-2.52,1.12-2.52,3.49v7.08c0,1.76.39,3.71,2.45,3.71,1.77,0,2.49-.92,2.49-3.55v-.34Z"/><path class="cls-1" d="M198.64,129.56h1.91v16.62h-1.91Zm0-6.43h1.92v3.25h-1.92Z"/><path class="cls-1" d="M213.31,143.68c0,1.2,0,2.12.08,2.5h-1.82a8.42,8.42,0,0,1-.17-1.44,3.14,3.14,0,0,1-3.19,1.71c-2.75,0-3.84-2-3.84-4.61v-.29c0-3.53,2.4-5,5.87-5h1.13v-3c0-1.65-.38-2.76-2.17-2.76s-2.31,1.14-2.31,2.63V134H205v-.56c0-2.26,1.07-4.12,4.27-4.12s4.05,1.85,4.05,4.13Zm-1.89-5.77h-1.18c-2.53,0-4,.94-4,3.57v.3c0,1.7.57,3.16,2.33,3.16,2.16,0,2.81-1.55,2.81-4.22Z"/><path class="cls-1" d="M218.18,146.18V123.13h1.91v23.05Z"/><path class="cls-1" d="M233.3,124.11v22.07h-1.91V124.11Z"/><path class="cls-1" d="M238,134.57c0-3.31,0-4.14,0-5h1.81a12.72,12.72,0,0,1,.1,1.77c.58-1.4,1.83-2,3.58-2,2,0,3.75.91,3.75,3.9v13h-1.91V133.53c0-1.69-.66-2.71-2.33-2.71-1.82,0-3.05.74-3.05,4.51v10.85H238Z"/><path class="cls-1" d="M250,129.56h2.37V125.4h1.88v4.16h3V131h-3v12.11c0,.9.22,1.86,1.49,1.86a8.32,8.32,0,0,0,1.35-.1v1.31a7.69,7.69,0,0,1-1.95.19c-1.51,0-2.77-.66-2.77-3V131H250Z"/><path class="cls-1" d="M261.53,138.06V141c0,1.92.42,4,2.68,4,2.07,0,2.52-1.36,2.52-3.23v-.18h1.9v.15c0,2.06-.6,4.7-4.47,4.7-3.46,0-4.52-2-4.52-5.42v-6.72c0-2.7,1.18-5,4.61-5s4.42,2.37,4.42,5v3.73Zm5.26-1.4v-2.35c0-1.56-.2-3.58-2.57-3.58s-2.68,1.69-2.68,3.61v2.32Z"/><path class="cls-1" d="M272.86,146.18V123.13h1.91v23.05Z"/><path class="cls-1" d="M279.6,146.18V123.13h1.92v23.05Z"/><path class="cls-1" d="M286.35,129.56h1.91v16.62h-1.91Zm0-6.43h1.91v3.25h-1.91Z"/><path class="cls-1" d="M301.82,146.25c0,3.15-.46,5.84-4.89,5.84-3.68,0-4.44-2.22-4.44-4V148h1.95v.13a2.34,2.34,0,0,0,2.59,2.54c2.31,0,2.88-1.44,2.88-4v-2.37c-.54,1.28-1.58,1.88-3.38,1.88-2.59,0-4-1.49-4-5v-7c0-3.4,1.85-4.87,4.4-4.87,2,0,2.94.91,3.19,1.7,0-.44.09-1,.13-1.43h1.66c0,.84-.08,2.42-.08,4.53Zm-7.36-12V141c0,2.46.79,3.64,2.43,3.64,2.64,0,3.05-2.45,3.05-4.83v-4.94c0-2.26-.29-4-2.75-4C295.2,130.82,294.46,132.14,294.46,134.22Z"/><path class="cls-1" d="M308,138.06V141c0,1.92.41,4,2.67,4,2.07,0,2.53-1.36,2.53-3.23v-.18h1.89v.15c0,2.06-.59,4.7-4.47,4.7-3.45,0-4.52-2-4.52-5.42v-6.72c0-2.7,1.18-5,4.61-5s4.42,2.37,4.42,5v3.73Zm5.25-1.4v-2.35c0-1.56-.2-3.58-2.57-3.58s-2.68,1.69-2.68,3.61v2.32Z"/><path class="cls-1" d="M319.19,134.57c0-3.31,0-4.14,0-5H321a15.18,15.18,0,0,1,.09,1.77c.58-1.4,1.83-2,3.58-2,2,0,3.75.91,3.75,3.9v13h-1.91V133.53c0-1.69-.66-2.71-2.33-2.71s-3,.74-3,4.51v10.85h-1.91Z"/><path class="cls-1" d="M341.47,141.12v.23c0,2.78-.83,5.1-4.47,5.1-3.33,0-4.35-2-4.35-5.34v-7c0-2.89,1.32-4.83,4.52-4.83,3.45,0,4.3,2.18,4.3,4.51v.71h-1.93V134c0-1.68-.33-3.3-2.42-3.3-1.78,0-2.52,1.12-2.52,3.49v7.08c0,1.76.4,3.71,2.46,3.71,1.76,0,2.48-.92,2.48-3.55v-.34Z"/><path class="cls-1" d="M346.91,138.06V141c0,1.92.42,4,2.67,4,2.08,0,2.53-1.36,2.53-3.23v-.18H354v.15c0,2.06-.59,4.7-4.47,4.7-3.45,0-4.51-2-4.51-5.42v-6.72c0-2.7,1.18-5,4.61-5s4.42,2.37,4.42,5v3.73Zm5.26-1.4v-2.35c0-1.56-.21-3.58-2.58-3.58s-2.67,1.69-2.67,3.61v2.32Z"/><path class="cls-1" d="M134.51,62.92,115,0h10.39l8.42,29.25c2.51,8.71,5.37,19.38,6.36,25.5h.23c1-5.62,4.61-16.7,7.2-25.42L156.21,0h10L146,62.92Z"/><path class="cls-1" d="M184.13,34.36V62.92h-9.62V0h21.2c13.41,0,20.55,6,20.55,16.43,0,9.34-5.83,13.34-10.46,14.63,7.06,2.12,9.44,7.08,9.44,16v2.51c0,6.1.27,10,1.1,13.37h-9.53c-1.09-2.87-1.2-8.35-1.2-13.52V47.24c0-8.86-2.31-12.88-12.6-12.88Zm0-6.49h9.4c9.36,0,12.92-4.06,12.92-11.19,0-6.15-3.57-10.19-12-10.19H184.13Z"/><path class="cls-1" d="M238.71,43.74l-5.37,19.18h-9.67L242.52,0h12.54L274.4,62.92H264.16l-5.43-19.18Zm18.11-6.83c-4.26-14.81-7.09-24.45-8.17-29.65h-.29c-1.05,5.54-4.13,16.51-7.81,29.65Z"/><path class="cls-1" d="M292.3,0V62.92h-9.67V0Z"/><path class="cls-1" d="M307.66,62.92V0h11.65C340,41.89,343.08,48,344.07,50.74h.12c-.57-8.28-.7-17.71-.7-27.95V0h8.95V62.92H341.29C319.81,18.82,317,12.87,316.07,10.3H316c.58,7.85.65,18,.65,29.28V62.92Z"/><rect class="cls-2" y="35.51" width="27.41" height="27.41"/><polygon class="cls-2" points="0 8.11 0 26.12 37.59 26.12 37.59 62.92 54.82 62.92 54.82 8.11 0 8.11"/><polygon class="cls-2" points="66.56 8.11 66.56 26.12 66.56 26.12 66.56 62.92 83.79 62.92 83.79 8.11 66.56 8.11"/></g></g></svg>